<?xml version="1.0" standalone="no"?>
<!DOCTYPE svg PUBLIC "-//W3C//DTD SVG 20010904//EN"
 "http://www.w3.org/TR/2001/REC-SVG-20010904/DTD/svg10.dtd">
<svg version="1.0" xmlns="http://www.w3.org/2000/svg"
 width="512.000000pt" height="512.000000pt" viewBox="0 0 512.000000 512.000000"
 preserveAspectRatio="xMidYMid meet">
<metadata>
Created by potrace 1.11, written by Peter Selinger 2001-2013
</metadata>
<g transform="translate(0.000000,512.000000) scale(0.100000,-0.100000)"
fill="#000000" stroke="none">
<path d="M2330 4890 c-30 -4 -80 -11 -110 -14 -398 -51 -850 -257 -1175 -535
-452 -387 -736 -915 -809 -1506 -16 -125 -14 -484 2 -580 6 -33 13 -76 16 -95
33 -206 115 -451 222 -660 77 -151 194 -331 281 -430 12 -14 31 -36 43 -50
374 -436 953 -735 1525 -788 154 -14 512 -6 585 13 8 2 35 7 60 10 24 4 47 8
50 10 3 2 21 6 40 9 178 28 547 179 740 302 377 241 668 565 864 962 29 59 55
116 58 127 4 11 20 56 37 100 30 77 68 203 77 255 3 14 7 33 10 42 6 21 13 54
20 98 3 19 7 46 10 60 19 112 27 464 12 585 -5 33 -10 80 -13 105 -17 132 -85
376 -154 550 -37 92 -146 295 -212 393 -296 442 -724 767 -1228 933 -109 35
-289 78 -381 89 -30 4 -64 10 -75 12 -33 8 -436 10 -495 3z m385 -654 c119
-10 153 -15 260 -40 310 -73 552 -204 760 -411 184 -182 270 -339 331 -600 4
-16 9 -370 10 -785 3 -821 4 -812 -52 -928 -30 -60 -119 -156 -178 -190 l-38
-23 42 48 c45 50 92 143 104 203 11 56 3 1348 -9 1450 -6 59 -29 154 -47 198
-26 66 -32 80 -56 127 -14 28 -31 57 -38 66 -8 8 -14 20 -14 25 0 6 -8 19 -17
30 -10 11 -38 43 -62 73 -74 89 -205 200 -315 266 -14 9 -5 23 65 105 l82 95
-68 -65 c-38 -36 -79 -76 -92 -90 l-22 -24 -73 36 c-99 48 -196 83 -298 108
-98 23 -281 50 -275 40 2 -4 28 -10 57 -13 29 -3 64 -9 78 -12 14 -3 36 -7 50
-10 88 -17 251 -75 350 -126 91 -46 90 -40 18 -108 -114 -107 -133 -177 -137
-488 l-1 -63 -570 0 -570 0 -1 63 c0 34 -2 96 -4 137 -11 202 -26 242 -127
344 -52 52 -66 72 -56 78 57 41 273 127 393 157 39 10 58 14 155 31 25 4 34 8
20 9 -21 1 -92 -9 -175 -23 -95 -17 -261 -74 -367 -126 -67 -33 -68 -33 -86
-14 -44 47 -154 146 -132 119 14 -16 27 -32 30 -35 3 -3 27 -30 53 -61 l47
-56 -78 -48 c-77 -49 -259 -222 -315 -301 -47 -64 -125 -234 -146 -314 -31
-121 -33 -154 -36 -615 -6 -714 -6 -928 1 -965 12 -59 53 -143 95 -193 22 -26
36 -47 32 -47 -22 0 -131 101 -168 155 -83 123 -79 74 -81 920 -2 811 -1 835
52 995 31 91 96 217 154 296 62 83 184 208 254 260 34 24 70 51 81 60 11 8 58
37 105 64 146 83 326 150 496 184 121 24 132 25 239 32 55 3 101 7 102 8 3 3
110 -2 188 -8z m-876 -595 c16 -17 40 -53 53 -79 24 -49 26 -85 18 -339 l-3
-91 -161 -4 c-146 -3 -165 -5 -206 -27 -57 -31 -107 -82 -134 -140 -21 -45
-21 -54 -21 -671 0 -616 0 -626 21 -671 30 -64 94 -124 159 -148 55 -21 70
-21 995 -21 928 0 940 0 995 21 69 26 137 92 162 157 17 44 18 92 18 662 0
689 2 667 -73 747 -70 75 -105 87 -287 93 -95 3 -161 9 -162 15 0 6 -4 85 -7
177 -6 151 -5 171 14 220 11 30 36 72 56 94 20 21 47 51 59 66 l23 27 63 -42
c91 -60 247 -219 308 -312 64 -97 93 -160 129 -274 l27 -86 -2 -730 c-3 -803
-2 -786 -65 -881 -42 -62 -116 -117 -185 -139 -50 -16 -141 -17 -1071 -17
-756 -1 -1028 2 -1060 11 -114 32 -206 119 -244 232 -19 55 -19 85 -21 894
l-2 630 28 88 c72 232 236 451 436 584 l63 42 24 -28 c13 -16 37 -43 53 -60z
m1676 -624 c47 -18 71 -39 97 -82 l23 -40 1 -593 c0 -441 -3 -602 -12 -629
-16 -46 -50 -81 -98 -103 -36 -17 -102 -18 -970 -18 -873 0 -933 2 -966 18
-46 24 -79 60 -94 104 -9 26 -12 185 -12 628 l1 593 23 40 c26 43 50 64 97 82
43 17 1867 17 1910 0z m-2518 -247 c-2 -36 -8 -45 -59 -85 -61 -48 -105 -106
-131 -173 -24 -60 -20 -65 7 -12 34 64 136 160 171 160 8 0 11 -79 11 -305 0
-220 -4 -305 -12 -305 -32 0 -138 101 -169 160 -23 44 -27 37 -8 -12 24 -63
87 -143 141 -180 26 -18 47 -40 46 -48 0 -8 -2 -21 -2 -28 -3 -22 -137 55
-187 107 -52 54 -84 99 -108 156 -56 129 -37 302 44 421 54 79 189 182 241
184 13 0 16 -8 15 -40z m3205 14 c142 -72 242 -227 252 -388 12 -184 -114
-378 -290 -448 l-41 -17 1 27 c1 21 14 37 57 68 30 23 71 65 91 95 35 54 65
126 55 135 -3 3 -8 -8 -12 -25 -11 -50 -143 -181 -183 -181 -4 0 -8 137 -8
305 0 231 3 305 12 305 16 0 103 -66 129 -98 11 -13 30 -43 43 -66 28 -49 20
-11 -11 51 -28 59 -71 108 -126 146 -42 29 -46 36 -47 75 -2 51 6 52 78 16z
m-2047 -1644 c16 -18 16 -20 1 -35 -9 -9 -16 -21 -16 -27 0 -6 7 -19 16 -29
15 -17 15 -19 0 -34 -21 -22 -20 -34 6 -62 18 -19 19 -23 5 -23 -24 0 -32 -38
-12 -60 16 -18 16 -20 1 -35 -23 -24 -20 -37 17 -72 134 -128 494 -155 699
-53 52 27 108 78 108 100 0 27 -21 42 -39 27 -9 -6 -3 3 12 21 31 38 34 57 11
70 -16 9 -16 11 0 33 20 29 20 34 0 54 -15 15 -15 17 1 35 15 17 16 24 6 46
-10 23 -14 24 -29 13 -9 -7 -4 1 12 19 34 37 71 44 63 12 -3 -11 -2 -22 2 -24
4 -3 5 -37 4 -78 -2 -40 -3 -80 -2 -88 0 -8 0 -34 0 -57 l0 -43 52 0 c106 0
284 -43 378 -90 81 -42 221 -151 209 -164 -3 -2 -52 -27 -109 -55 l-103 -51
-34 44 c-47 62 -128 130 -198 167 -69 37 -186 80 -198 73 -17 -11 -7 -21 30
-32 104 -32 261 -154 311 -242 l22 -39 -110 -35 c-60 -20 -131 -40 -157 -47
-27 -6 -58 -13 -69 -15 -55 -13 -187 -35 -245 -42 -134 -15 -484 -6 -585 14
-11 3 -36 7 -55 10 -121 19 -423 110 -418 125 11 31 90 122 141 163 60 47 187
116 215 116 8 0 12 6 9 13 -2 6 -15 10 -28 9 -42 -6 -168 -63 -228 -103 -56
-37 -147 -126 -168 -163 -9 -17 -17 -15 -114 35 -57 28 -106 54 -108 55 -6 5
73 79 119 110 94 65 225 115 336 130 32 4 62 9 67 10 4 1 31 2 61 3 l54 1 0
123 c-1 187 -1 187 20 187 11 0 27 -9 37 -20z m695 5 c-14 -8 -29 -14 -35 -14
-5 0 1 6 15 14 14 8 30 14 35 14 6 0 -1 -6 -15 -14z m-441 -72 c2 -2 2 -6 -2
-9 -17 -17 -207 53 -207 76 0 7 193 -54 209 -67z m497 51 c-43 -31 -196 -76
-196 -58 0 10 202 84 210 77 3 -3 -4 -11 -14 -19z m-527 -10 c10 -9 -35 -3
-49 6 -11 8 -7 9 15 4 17 -4 32 -8 34 -10z m355 -4 c-25 -25 -253 -32 -319
-10 -29 9 -28 10 7 4 60 -8 250 -5 283 5 40 12 40 12 29 1z m-346 -117 c40 -9
24 -26 -19 -19 -50 8 -169 61 -169 75 0 6 37 -3 83 -21 45 -17 92 -33 105 -35z
m-93 57 c3 -6 -1 -7 -9 -4 -18 7 -21 14 -7 14 6 0 13 -4 16 -10z m610 -17
c-28 -20 -125 -54 -170 -60 -54 -7 -36 9 35 32 30 10 73 26 95 36 43 19 69 14
40 -8z m-570 -1 c-3 -3 -11 0 -18 7 -9 10 -8 11 6 5 10 -3 15 -9 12 -12z m470
3 c-16 -8 -39 -14 -50 -14 -11 0 -2 6 20 14 52 17 68 17 30 0z m-428 -11 c-3
-3 -12 -4 -19 -1 -8 3 -5 6 6 6 11 1 17 -2 13 -5z m151 -14 c34 0 62 -4 62 -8
0 -11 -114 -6 -165 7 l-40 11 40 -5 c22 -3 68 -5 103 -5z m179 0 c-31 -9 -74
-14 -97 -9 -8 1 8 5 35 9 72 10 95 10 62 0z m-382 -86 c104 -41 115 -48 60
-41 -52 7 -91 19 -143 46 -40 21 -61 51 -24 36 9 -4 57 -22 107 -41z m-25 36
c8 -5 11 -10 5 -10 -5 0 -17 5 -25 10 -8 5 -10 10 -5 10 6 0 17 -5 25 -10z
m549 6 c-2 -2 -15 -9 -29 -15 -24 -11 -24 -11 -6 3 16 13 49 24 35 12z m71 -4
c0 -14 -78 -53 -133 -68 -54 -14 -95 -18 -84 -8 4 4 198 80 215 83 1 1 2 -3 2
-7z m-516 -32 c27 -6 78 -11 113 -11 34 -1 63 -4 63 -8 0 -18 -215 8 -250 31
-12 7 -11 8 5 4 11 -3 42 -10 69 -16z m384 15 c-10 -10 -98 -33 -98 -25 0 4
19 12 43 17 52 13 62 14 55 8z m-113 -30 c-23 -8 -85 -10 -85 -3 0 4 21 8 48
7 26 0 43 -2 37 -4z m-260 -117 c14 -13 -35 -9 -86 6 -60 18 -129 54 -129 66
0 10 197 -56 215 -72z m505 72 c0 -13 -75 -50 -135 -66 -55 -15 -92 -18 -81
-7 5 6 191 77 214 82 1 1 2 -3 2 -9z m-130 -20 c-8 -5 -19 -10 -25 -10 -5 0
-3 5 5 10 8 5 20 10 25 10 6 0 3 -5 -5 -10z m-390 -10 c20 -6 21 -8 5 -8 -11
0 -29 3 -40 8 -25 11 1 11 35 0z m345 1 c-9 -16 -215 -34 -215 -20 0 5 35 10
78 10 62 1 113 8 140 18 2 0 1 -3 -3 -8z m-242 -18 c-13 -2 -35 -2 -50 0 -16
2 -5 4 22 4 28 0 40 -2 28 -4z m-188 -75 c107 -40 123 -51 60 -43 -55 7 -175
60 -175 77 0 6 7 7 18 3 9 -4 53 -21 97 -37z m605 32 c0 -21 -147 -80 -200
-80 -23 1 -24 1 -5 12 14 8 167 67 203 77 1 1 2 -3 2 -9z m-595 -10 c13 -6 15
-9 5 -9 -8 0 -22 4 -30 9 -18 12 -2 12 25 0z m490 0 c-3 -5 -14 -10 -23 -9
-14 0 -13 2 3 9 27 11 27 11 20 0z m-368 -26 c29 -4 50 -10 48 -14 -5 -8 -135
16 -144 27 -3 3 5 3 19 0 14 -4 49 -10 77 -13z m302 6 c-9 -5 -43 -12 -75 -15
l-59 -5 65 14 c83 17 88 17 69 6z m-139 -19 c0 -3 -22 -6 -50 -6 -27 0 -50 3
-50 7 0 4 23 7 50 6 28 0 50 -3 50 -7z"/>
<path d="M2524 3995 c-14 -25 -31 -42 -36 -38 -6 3 -8 1 -4 -5 6 -10 -29 -81
-46 -93 -5 -3 -62 -14 -128 -23 -66 -10 -120 -22 -120 -27 0 -5 4 -9 9 -9 5 0
50 -23 100 -51 l90 -52 -5 -51 c-3 -28 -9 -68 -14 -88 -4 -21 -4 -38 1 -38 5
0 32 11 61 24 135 61 118 60 220 16 50 -22 95 -40 99 -40 4 0 3 17 -1 38 -5
20 -11 60 -14 88 l-6 50 53 31 c28 17 73 42 99 55 26 12 48 26 48 29 0 4 -24
10 -52 14 -29 5 -55 9 -58 10 -3 1 -33 5 -68 9 -35 5 -68 13 -73 20 -5 6 -32
48 -60 94 -27 45 -54 82 -59 82 -5 0 -21 -20 -36 -45z"/>
<path d="M2428 3953 c7 -3 16 -2 19 1 4 3 -2 6 -13 5 -11 0 -14 -3 -6 -6z"/>
<path d="M2678 3953 c7 -3 16 -2 19 1 4 3 -2 6 -13 5 -11 0 -14 -3 -6 -6z"/>
<path d="M1582 2936 l-37 -34 0 -611 0 -611 33 -32 32 -33 938 -2 c737 -2 942
0 962 10 13 7 35 28 47 46 l23 34 0 584 c0 641 1 630 -59 666 -27 16 -101 17
-965 17 l-936 0 -38 -34z m523 -483 c164 -84 200 -300 71 -425 -60 -58 -109
-77 -196 -75 -92 3 -153 34 -205 105 -106 145 -37 357 135 413 43 14 151 4
195 -18z m1153 -5 c124 -64 175 -232 107 -357 -48 -87 -114 -131 -211 -139
-159 -12 -288 106 -287 263 1 122 73 217 193 256 45 15 147 3 198 -23z"/>
</g>
</svg>
